<?xml version="1.0" encoding="iso-8859-1"?>
<!-- Generator: Adobe Illustrator 19.0.0, SVG Export Plug-In . SVG Version: 6.00 Build 0)  -->
<svg version="1.1" id="Layer_1" xmlns="http://www.w3.org/2000/svg" xmlns:xlink="http://www.w3.org/1999/xlink" x="0px" y="0px"
	 viewBox="0 0 512 512" style="enable-background:new 0 0 512 512;" xml:space="preserve">
<g>
	<g>
		<path d="M336.401,0l-0.65,7.199c-1.79,19.831-10.878,38.2-25.59,51.726c-14.801,13.609-34.036,21.103-54.16,21.103
			c-20.125,0-39.359-7.494-54.16-21.103c-14.712-13.527-23.8-31.897-25.59-51.726L175.6,0h-63.559v512h287.918V0H336.401z
			 M384.139,152.055h-8.096v15.82h8.096v328.305H127.861V167.874h8.096v-15.82h-8.096V15.82h33.558
			c3.505,20.977,13.894,40.207,29.714,54.751c17.73,16.301,40.766,25.278,64.868,25.278s47.138-8.977,64.868-25.278
			c15.819-14.544,26.208-33.774,29.714-54.751h33.558V152.055z"/>
	</g>
</g>
<g>
	<g>
		<rect x="151.964" y="152.059" width="16.006" height="15.82"/>
	</g>
</g>
<g>
	<g>
		<rect x="183.973" y="152.059" width="16.005" height="15.82"/>
	</g>
</g>
<g>
	<g>
		<rect x="215.981" y="152.059" width="16.006" height="15.82"/>
	</g>
</g>
<g>
	<g>
		<rect x="248.001" y="152.059" width="16.005" height="15.82"/>
	</g>
</g>
<g>
	<g>
		<rect x="280.009" y="152.059" width="16.006" height="15.82"/>
	</g>
</g>
<g>
	<g>
		<rect x="312.017" y="152.059" width="16.006" height="15.82"/>
	</g>
</g>
<g>
	<g>
		<rect x="344.037" y="152.059" width="16.006" height="15.82"/>
	</g>
</g>
<g>
	<g>
		<path d="M152.056,192.07v151.869h207.889V192.07H152.056z M344.125,328.119H167.876V207.89h176.249V328.119z"/>
	</g>
</g>
<g>
	<g>
		<rect x="183.973" y="360.13" width="144.054" height="15.82"/>
	</g>
</g>
<g>
	<g>
		<rect x="183.973" y="392.138" width="144.054" height="15.82"/>
	</g>
</g>
<g>
	<g>
		<rect x="183.973" y="424.157" width="56.023" height="15.82"/>
	</g>
</g>
<g>
	<g>
		<rect x="183.973" y="456.166" width="24.009" height="15.82"/>
	</g>
</g>
<g>
	<g>
		<rect x="223.986" y="456.166" width="24.009" height="15.82"/>
	</g>
</g>
<g>
	<g>
		<rect x="263.999" y="456.166" width="24.009" height="15.82"/>
	</g>
</g>
<g>
	<g>
		<rect x="304.013" y="456.166" width="24.009" height="15.82"/>
	</g>
</g>
<g>
</g>
<g>
</g>
<g>
</g>
<g>
</g>
<g>
</g>
<g>
</g>
<g>
</g>
<g>
</g>
<g>
</g>
<g>
</g>
<g>
</g>
<g>
</g>
<g>
</g>
<g>
</g>
<g>
</g>
</svg>
